<?xml version="1.0" encoding="UTF-8"?>
<svg width="200px" height="200px" viewBox="0 0 200 200" version="1.1" xmlns="http://www.w3.org/2000/svg" xmlns:xlink="http://www.w3.org/1999/xlink" style="background: #000000;">
    <!-- Generator: Sketch 49.1 (51147) - http://www.bohemiancoding.com/sketch -->
    <title>sample</title>
    <desc>Created with Sketch.</desc>
    <defs>
        <rect id="path-1" x="0" y="0" width="100" height="100"></rect>
        <filter x="-40.9%" y="-88.2%" width="181.7%" height="276.3%" filterUnits="objectBoundingBox" id="filter-2">
            <feGaussianBlur stdDeviation="10" in="SourceGraphic"></feGaussianBlur>
        </filter>
        <filter x="-9.8%" y="-21.2%" width="119.7%" height="142.4%" filterUnits="objectBoundingBox" id="filter-3">
            <feGaussianBlur stdDeviation="2.02008929" in="SourceGraphic"></feGaussianBlur>
        </filter>
        <rect id="path-4" x="16" y="0" width="100" height="100"></rect>
        <radialGradient cx="50%" cy="50%" fx="50%" fy="50%" r="71.5021307%" gradientTransform="translate(0.500000,0.500000),scale(0.710643,1.000000),rotate(90.000000),translate(-0.500000,-0.500000)" id="radialGradient-5">
            <stop stop-color="#3B2607" stop-opacity="0.493234828" offset="0%"></stop>
            <stop stop-color="#5A3D10" stop-opacity="0.719910553" offset="100%"></stop>
        </radialGradient>
        <radialGradient cx="50%" cy="50%" fx="50%" fy="50%" r="71.5021307%" gradientTransform="translate(0.500000,0.500000),scale(0.573112,1.000000),rotate(90.000000),translate(-0.500000,-0.500000)" id="radialGradient-6">
            <stop stop-color="#3B2607" stop-opacity="0.493234828" offset="0%"></stop>
            <stop stop-color="#5A3D10" stop-opacity="0.719910553" offset="100%"></stop>
        </radialGradient>
        <radialGradient cx="50%" cy="50%" fx="50%" fy="50%" r="71.5021307%" gradientTransform="translate(0.500000,0.500000),scale(0.581286,1.000000),rotate(90.000000),translate(-0.500000,-0.500000)" id="radialGradient-7">
            <stop stop-color="#3B2607" stop-opacity="0.493234828" offset="0%"></stop>
            <stop stop-color="#5A3D10" stop-opacity="0.719910553" offset="100%"></stop>
        </radialGradient>
        <radialGradient cx="50%" cy="50%" fx="50%" fy="50%" r="71.5021307%" gradientTransform="translate(0.500000,0.500000),scale(0.615521,1.000000),rotate(90.000000),translate(-0.500000,-0.500000)" id="radialGradient-8">
            <stop stop-color="#3B2607" stop-opacity="0.493234828" offset="0%"></stop>
            <stop stop-color="#5A3D10" stop-opacity="0.719910553" offset="100%"></stop>
        </radialGradient>
        <radialGradient cx="50%" cy="50%" fx="50%" fy="50%" r="71.5021307%" gradientTransform="translate(0.500000,0.500000),scale(0.830609,1.000000),rotate(90.000000),translate(-0.500000,-0.500000)" id="radialGradient-9">
            <stop stop-color="#3B2607" stop-opacity="0.493234828" offset="0%"></stop>
            <stop stop-color="#5A3D10" stop-opacity="0.719910553" offset="100%"></stop>
        </radialGradient>
        <radialGradient cx="50%" cy="50%" fx="50%" fy="50%" r="71.5021307%" gradientTransform="translate(0.500000,0.500000),scale(0.855389,1.000000),rotate(90.000000),translate(-0.500000,-0.500000)" id="radialGradient-10">
            <stop stop-color="#3B2607" stop-opacity="0.493234828" offset="0%"></stop>
            <stop stop-color="#5A3D10" stop-opacity="0.719910553" offset="100%"></stop>
        </radialGradient>
        <rect id="path-11" x="0" y="3" width="100" height="100"></rect>
        <linearGradient x1="7.52534474%" y1="100%" x2="97.664921%" y2="100%" id="linearGradient-12">
            <stop stop-color="#E4BE84" offset="0%"></stop>
            <stop stop-color="#F1D3A5" offset="20.4562717%"></stop>
            <stop stop-color="#F1D3A5" offset="64.5363325%"></stop>
            <stop stop-color="#E4BE84" offset="100%"></stop>
        </linearGradient>
        <radialGradient cx="50%" cy="0%" fx="50%" fy="0%" r="100%" gradientTransform="translate(0.500000,0.000000),scale(0.857143,1.000000),rotate(90.000000),translate(-0.500000,-0.000000)" id="radialGradient-13">
            <stop stop-color="#E8C590" offset="0%"></stop>
            <stop stop-color="#F3D6AA" offset="100%"></stop>
        </radialGradient>
        <radialGradient cx="50%" cy="50%" fx="50%" fy="50%" r="50%" id="radialGradient-14">
            <stop stop-color="#DD5F5F" stop-opacity="0.497169384" offset="0%"></stop>
            <stop stop-color="#F3D6AA" offset="100%"></stop>
        </radialGradient>
        <circle id="path-15" cx="1.75" cy="1.75" r="1.75"></circle>
        <circle id="path-16" cx="2.25" cy="2.25" r="2.25"></circle>
        <circle id="path-17" cx="1.75" cy="1.75" r="1.75"></circle>
        <radialGradient cx="50%" cy="50%" fx="50%" fy="50%" r="50.1817673%" gradientTransform="translate(0.500000,0.500000),scale(1.000000,0.996378),rotate(90.000000),translate(-0.500000,-0.500000)" id="radialGradient-18">
            <stop stop-color="#DD5F5F" stop-opacity="0.497169384" offset="0%"></stop>
            <stop stop-color="#F3D6AA" offset="100%"></stop>
        </radialGradient>
        <ellipse id="path-19" cx="1.73195876" cy="1.73825503" rx="1.73195876" ry="1.73825503"></ellipse>
        <radialGradient cx="50%" cy="50%" fx="50%" fy="50%" r="50.1817673%" gradientTransform="translate(0.500000,0.500000),scale(1.000000,0.996378),rotate(90.000000),translate(-0.500000,-0.500000)" id="radialGradient-20">
            <stop stop-color="#DD5F5F" stop-opacity="0.497169384" offset="0%"></stop>
            <stop stop-color="#F3D6AA" offset="100%"></stop>
        </radialGradient>
        <ellipse id="path-21" cx="1.2371134" cy="1.24161074" rx="1.2371134" ry="1.24161074"></ellipse>
        <radialGradient cx="50%" cy="50%" fx="50%" fy="50%" r="50.1817673%" gradientTransform="translate(0.500000,0.500000),scale(1.000000,0.996378),rotate(90.000000),translate(-0.500000,-0.500000)" id="radialGradient-22">
            <stop stop-color="#DD5F5F" stop-opacity="0.497169384" offset="0%"></stop>
            <stop stop-color="#F3D6AA" offset="100%"></stop>
        </radialGradient>
        <ellipse id="path-23" cx="2.22680412" cy="2.23489933" rx="2.22680412" ry="2.23489933"></ellipse>
        <radialGradient cx="50%" cy="50%" fx="50%" fy="50%" r="50.1817673%" gradientTransform="translate(0.500000,0.500000),scale(1.000000,0.996378),rotate(90.000000),translate(-0.500000,-0.500000)" id="radialGradient-24">
            <stop stop-color="#DD5F5F" stop-opacity="0.497169384" offset="0%"></stop>
            <stop stop-color="#F3D6AA" offset="100%"></stop>
        </radialGradient>
        <ellipse id="path-25" cx="0.989690722" cy="0.993288591" rx="1" ry="1"></ellipse>
        <ellipse id="path-26" cx="1.73195876" cy="1.73825503" rx="1.73195876" ry="1.73825503"></ellipse>
        <ellipse id="path-27" cx="2.22680412" cy="2.23489933" rx="2.22680412" ry="2.23489933"></ellipse>
        <ellipse id="path-28" cx="0.989690722" cy="0.993288591" rx="1" ry="1"></ellipse>
        <ellipse id="path-29" cx="1.73195876" cy="1.73825503" rx="1.73195876" ry="1.73825503"></ellipse>
        <ellipse id="path-30" cx="1.73195876" cy="1.73825503" rx="1.73195876" ry="1.73825503"></ellipse>
        <ellipse id="path-31" cx="1.73195876" cy="1.73825503" rx="1.73195876" ry="1.73825503"></ellipse>
        <ellipse id="path-32" cx="1.73195876" cy="1.73825503" rx="1.73195876" ry="1.73825503"></ellipse>
        <path d="M8.65496134,6.54949664 C12.7543945,6.54949664 17.2915593,2.18132556 17.2915593,1.90703649 C17.2915593,1.73932051 15.0401674,0.633790821 12.6928473,0.185953919 C11.2012713,-0.0986185967 9.67096118,0.675125839 8.65496134,0.675125839 C7.88997198,0.675125839 6.83274695,-0.0611585818 5.71974582,0.309344074 C3.02827121,1.20529868 0.0106314433,4.2548978 0.0106314433,4.44894348 C0.0106314433,4.72323255 4.55552815,6.54949664 8.65496134,6.54949664 Z" id="path-33"></path>
        <linearGradient x1="50%" y1="50%" x2="50%" y2="100%" id="linearGradient-34">
            <stop stop-color="#F3D6AA" offset="0%"></stop>
            <stop stop-color="#E8C48A" offset="100%"></stop>
        </linearGradient>
        <linearGradient x1="50%" y1="50%" x2="50%" y2="100%" id="linearGradient-35">
            <stop stop-color="#F3D6AA" offset="0%"></stop>
            <stop stop-color="#E9C68D" offset="100%"></stop>
        </linearGradient>
        <radialGradient cx="50%" cy="50%" fx="50%" fy="50%" r="50%" gradientTransform="translate(0.500000,0.500000),scale(0.936726,1.000000),rotate(90.000000),translate(-0.500000,-0.500000)" id="radialGradient-36">
            <stop stop-color="#F3D6AA" offset="0%"></stop>
            <stop stop-color="#E6D1B1" offset="100%"></stop>
        </radialGradient>
        <ellipse id="path-37" cx="6.18556701" cy="12.6644295" rx="2.22680412" ry="2.23489933"></ellipse>
        <ellipse id="path-38" cx="6.18556701" cy="12.6644295" rx="1" ry="1"></ellipse>
        <ellipse id="path-39" cx="2.22680412" cy="2.23489933" rx="2.22680412" ry="2.23489933"></ellipse>
        <ellipse id="path-40" cx="2.22680412" cy="2.23489933" rx="1" ry="1"></ellipse>
        <rect id="path-41" x="0" y="0" width="100" height="100"></rect>
        <path d="M52.8469786,52.2343077 C53.2086067,52.3686153 53.5780264,52.4442621 54.0068475,52.4442621 C54.312576,52.4442621 54.6571774,52.3596326 55.0278457,52.2280413 C55.4117766,46.4530071 55.6037426,42.1153448 55.6037426,39.2150544 C55.6037426,35.6186406 54.0068475,32.9903515 54.0068475,29.3939377 C54.0068475,19.2025751 66.3017389,22.468053 66.3017389,29.3939377 C66.3017389,35.2421637 66.3017397,44.0562458 66.3017411,55.8361842 C66.4563747,55.8961094 66.6138757,55.9455474 66.7746003,55.9830776 L66.7745588,42.3266773 C66.7745588,38.7519829 69.6724212,35.8541204 73.2471156,35.8541204 C75.6107167,35.8541204 77.7863795,37.1425008 78.9226592,39.2150544 C81.025563,43.0507126 81.8684114,48.9894177 81.4512044,57.0311696 C81.4081446,57.86117 81.2368903,58.6688118 80.951395,59.4289778 C82.2810302,61.9541721 83.1367206,63.9265764 83.518466,65.3461907 C83.9325211,66.8859567 85.7596991,75.1038931 89,90 L10.1721239,90 C7.49538411,84.9981651 5.88186433,81.0939749 5.33156453,78.2874294 C4.78457457,75.4977641 3.85294977,65.5750307 2.53669013,48.5192291 C2.34080699,48.0739139 2.18381114,47.6065167 2.07009934,47.1210741 C0.971805912,42.4323926 0.422659196,38.7396424 0.422659196,36.0428236 C0.422659196,30.5732396 -1.2254171,21.2972628 1.98722846,15.7825996 C5.19987402,10.2679364 7.77170149,7.68381227 13.6291385,7.68381227 C19.4865755,7.68381227 21.2422398,9.63838633 24.4545909,14.5127931 C24.4960302,14.5756729 24.5369646,14.6386573 24.5774,14.701742 C24.6372593,12.9014859 24.7690351,11.6811415 24.9727274,11.0407089 C25.5801258,9.13097718 28.9736591,7 31.8708291,7 C36.3661905,7 37.5756669,9.96287573 38.401793,12.0024342 C39.1301986,13.8007379 37.6389174,21.4715452 38.401793,32.115474 C38.5470167,34.1416889 39.230025,39.1152575 40.450818,47.0361797 C40.6160961,48.1085654 40.5601951,49.1639911 40.3171063,50.156079 C40.4650176,50.1645237 40.6147221,50.1706724 40.7661952,50.1743345 C40.8913606,50.1773605 41.013844,50.1789348 41.1337752,50.1791816 C41.5341321,42.6470781 41.7268594,37.5101684 41.7119561,34.7684462 C41.6820197,29.2611003 41.267889,24.6392206 40.7661952,20.9075349 C40.7661952,17.3628554 42.302488,15.1215534 44.2889515,14.1302071 C47.922095,12.3170837 53.0610866,14.6851371 53.0610866,20.9075349 C53.0610866,27.0861017 53.0610869,36.9902631 53.0610875,50.6200191 L53.0611198,50.6200191 C53.0611199,51.1786509 52.9866072,51.7198793 52.8469786,52.2343077 Z M25.4069588,49.8631643 C25.511427,49.8979167 25.6147074,49.9304877 25.7167673,49.9606886 C25.568976,46.1252378 25.438029,42.7478249 25.3239263,39.8284497 C24.8288539,41.2371614 24.4545909,42.353389 24.4545909,43.1935985 C24.4545909,45.3161858 24.7720469,47.5393744 25.4069588,49.8631643 Z" id="path-42"></path>
        <radialGradient cx="45.2884227%" cy="100%" fx="45.2884227%" fy="100%" r="46.1305132%" gradientTransform="translate(0.452884,1.000000),rotate(90.000000),scale(1.000000,1.495689),translate(-0.452884,-1.000000)" id="radialGradient-43">
            <stop stop-color="#450235" stop-opacity="0.5" offset="0%"></stop>
            <stop stop-color="#FFFFFF" stop-opacity="0.5" offset="100%"></stop>
        </radialGradient>
        <path d="M7,14 L21,14 L20.3464594,21.1181775 C20.0265403,24.6026444 17.3936632,27.431349 13.9410564,28 L13.8977937,27.9939821 C9.94347518,27.4439271 7,24.0626667 7,20.0702745 L7,14 Z" id="path-44"></path>
        <radialGradient cx="50%" cy="50%" fx="50%" fy="50%" r="450%" gradientTransform="translate(0.500000,0.500000),scale(1.000000,0.222222),rotate(90.000000),translate(-0.500000,-0.500000)" id="radialGradient-45">
            <stop stop-color="#D09494" stop-opacity="0.5" offset="0%"></stop>
            <stop stop-color="#F10909" stop-opacity="0.5" offset="100%"></stop>
        </radialGradient>
        <path d="M6,23 C6.44159374,23 7,20.5479275 7,18.2407251 C7,15.9335227 5.84244135,14 5.40084761,14 C4.95925387,14 5.00105951,15.9335227 5.00105951,18.2407251 C5.00105951,20.5479275 5.55840626,23 6,23 Z" id="path-46"></path>
        <radialGradient cx="50%" cy="148.922509%" fx="50%" fy="148.922509%" r="100%" gradientTransform="translate(0.500000,1.489225),scale(0.875000,1.000000),rotate(90.000000),translate(-0.500000,-1.489225)" id="radialGradient-47">
            <stop stop-color="#450235" stop-opacity="0.5" offset="0%"></stop>
            <stop stop-color="#FFFFFF" stop-opacity="0.5" offset="100%"></stop>
        </radialGradient>
        <path d="M28,9 C29.0119172,9.58333333 30.3340232,9.875 31.9663179,9.875 C33.5986127,9.875 34.9431733,9.58333333 36,9 L35.6693393,12.1512789 C35.4616467,14.1306411 33.9361958,15.7161126 31.9663179,16 L31.9663179,16 C29.7022591,15.7244311 28,13.8024196 28,11.5216521 L28,9 Z" id="path-48"></path>
        <radialGradient cx="50%" cy="148.922509%" fx="50%" fy="148.922509%" r="100%" id="radialGradient-49">
            <stop stop-color="#450235" stop-opacity="0.5" offset="0%"></stop>
            <stop stop-color="#FFFFFF" stop-opacity="0.5" offset="100%"></stop>
        </radialGradient>
        <path d="M43,16 C44.0331081,16.5833333 45.2279549,16.875 46.5845404,16.875 C47.9411259,16.875 49.0796124,16.5833333 50,16 L50,19.2760099 C50,21.1392946 48.6374232,22.7224768 46.7949219,23 L46.7949219,23 C44.6257374,22.7240543 43,20.8784022 43,18.6917365 L43,16 Z" id="path-50"></path>
        <radialGradient cx="59.4812572%" cy="158.716665%" fx="59.4812572%" fy="158.716665%" r="100%" id="radialGradient-51">
            <stop stop-color="#450235" stop-opacity="0.5" offset="0%"></stop>
            <stop stop-color="#FFFFFF" stop-opacity="0.5" offset="100%"></stop>
        </radialGradient>
        <path d="M56,26.0863108 C56.5554512,26.6266551 57.5183794,26.7904925 58.8887846,26.5778231 C60.2591897,26.3651537 61.6295949,25.8392126 63,25 L63,27.2246971 C63,29.4095532 61.5834842,31.3422081 59.5,32 L59.5,32 C57.5670034,32 56,30.4329966 56,28.5 L56,26.0863108 Z" id="path-52"></path>
        <radialGradient cx="38.7344003%" cy="162.038591%" fx="38.7344003%" fy="162.038591%" r="116.562473%" gradientTransform="translate(0.387344,1.620386),scale(1.000000,0.857909),rotate(90.000000),translate(-0.387344,-1.620386)" id="radialGradient-53">
            <stop stop-color="#450235" stop-opacity="0.5" offset="0%"></stop>
            <stop stop-color="#FFFFFF" stop-opacity="0.5" offset="100%"></stop>
        </radialGradient>
        <path d="M70.0860591,37.0007392 C71.3471214,38.2599892 72.4468613,38.8896143 73.3852787,38.8896143 C74.323696,38.8896143 75.1953044,38.5686571 76.0001039,37.9267427 L75.9412116,40.814413 C75.9067266,42.5053187 74.5848471,43.8890367 72.8972826,44.0007392 L72.8972826,44.0007392 C71.2377204,43.8972938 69.9564421,42.5010618 69.9956153,40.8387402 L70.0860591,37.0007392 Z" id="path-54"></path>
    </defs>
    <g id="sample" stroke="none" stroke-width="1" fill="none" fill-rule="evenodd">
        <g id="ebolabox">
            <g id="Rectangle-9">
                <use fill="#FBDDDA" fill-rule="evenodd" xlink:href="#path-1"></use>
                <rect stroke="#060605" stroke-width="1" x="0.5" y="0.5" width="99" height="99"></rect>
            </g>
            <g id="ebola" transform="translate(10.000000, 31.000000)" stroke-linecap="round">
                <path d="M0,0 C0.697113867,9.53700442 3.11019142,16.4118598 4.38802549,25.8889918 C5.55242842,34.524855 18.4656164,41.6080576 28.4983678,35.9985842 C55.3463002,20.9874715 62.912292,8.11249886 81.2767796,15.6333329 C82.2864644,16.0468305 82.1945889,22.0143801 81.2767796,22.6223136 C71.7720457,28.9180067 66.3183766,-4.68380575 56.2801066,10.40998 C54.4359915,13.1828361 56.1555841,15.8548303 58.6867113,18.2578634 C61.9725719,21.3774346 66.6260899,24.0437328 66.6260899,25.8889918 C66.6260899,29.15567 65.3539822,32.0675462 64.4985933,32.4910138 C58.0656299,35.6757076 57.3769741,25.4346117 58.6867113,19" id="ebola-copy" stroke="#6A1103" stroke-width="7" filter="url(#filter-2)"></path>
                <path d="M0,0 C0.697113867,9.53700442 3.11019142,16.4118598 4.38802549,25.8889918 C5.55242842,34.524855 18.4656164,41.6080576 28.4983678,35.9985842 C55.3463002,20.9874715 62.912292,8.11249886 81.2767796,15.6333329 C82.2864644,16.0468305 82.1945889,22.0143801 81.2767796,22.6223136 C71.7720457,28.9180067 66.3183766,-4.68380575 56.2801066,10.40998 C54.4359915,13.1828361 56.1555841,15.8548303 58.6867113,18.2578634 C61.9725719,21.3774346 66.6260899,24.0437328 66.6260899,25.8889918 C66.6260899,29.15567 65.3539822,32.0675462 64.4985933,32.4910138 C58.0656299,35.6757076 57.3769741,25.4346117 58.6867113,19" id="shade" stroke="#170401" stroke-width="4" opacity="0.726845562" filter="url(#filter-3)"></path>
                <path d="M0,0 C0.697113867,9.53700442 3.11019142,16.4118598 4.38802549,25.8889918 C5.55242842,34.524855 18.4656164,41.6080576 28.4983678,35.9985842 C55.3463002,20.9874715 62.912292,8.11249886 81.2767796,15.6333329 C82.2864644,16.0468305 82.1945889,22.0143801 81.2767796,22.6223136 C71.7720457,28.9180067 66.3183766,-4.68380575 56.2801066,10.40998 C54.4359915,13.1828361 56.1555841,15.8548303 58.6867113,18.2578634 C61.9725719,21.3774346 66.6260899,24.0437328 66.6260899,25.8889918 C66.6260899,29.15567 65.3539822,32.0675462 64.4985933,32.4910138 C58.0656299,35.6757076 57.3769741,25.4346117 58.6867113,19" stroke="#EA6A57" stroke-width="2"></path>
            </g>
        </g>
        <g id="poobox" transform="translate(84.000000, 100.000000)">
            <g id="Rectangle-10-Copy">
                <use fill="#DDF5D1" fill-rule="evenodd" xlink:href="#path-4"></use>
                <rect stroke="#060605" stroke-width="1" x="16.5" y="0.5" width="99" height="99"></rect>
            </g>
            <g id="poo" transform="translate(0.000000, 12.000000)">
                <g id="baseturd" transform="translate(64.000000, 66.000000)">
                    <path d="M20.8714844,22.7358594 C35.3536458,22.7358594 41.7429688,24.84 41.7429688,15.87 C41.7429688,6.9 25.0258592,12.9078516 16.0052083,12.9078516 C6.98455742,12.9078516 0,9.49558594 0,15.87 C7.10728137e-16,22.2444141 6.38932292,22.7358594 20.8714844,22.7358594 Z" id="Oval-7" fill="#5A3D10"></path>
                    <path d="M22.7744701,14.7255584 C31.5373881,14.7255584 38.6411367,18.5223553 38.6411367,9.20555843 C38.6411367,3.2930506 34.2938355,3.80319945 30.2355943,3.67731077 C27.8989502,3.6048269 26.900602,2.14321591 23.6986962,2.14321591 C14.9357782,2.14321591 6.9078034,2.65505062 6.9078034,9.20555843 C6.9078034,15.7560662 14.011552,14.7255584 22.7744701,14.7255584 Z" id="Oval" fill="#5F3E0B" transform="translate(22.774470, 8.817190) rotate(-7.000000) translate(-22.774470, -8.817190) "></path>
                    <path d="M13.0666667,16.1 C16.674927,16.1 23.2613281,15.1022561 23.2613281,12.3076953 C23.2613281,9.51313448 16.674927,5.98 13.0666667,5.98 C9.4584063,5.98 9.02070312,8.24543917 9.02070312,11.04 C9.02070312,13.8345608 9.4584063,16.1 13.0666667,16.1 Z" id="Oval-2" fill="url(#radialGradient-5)"></path>
                    <path d="M25.5427083,12.3607031 C29.1509687,12.3607031 31.577474,8.02256865 31.577474,5.22800781 C31.577474,2.43344698 26.474927,4.14 22.8666667,4.14 C19.2584063,4.14 16.3333333,6.40543917 16.3333333,9.2 C16.3333333,11.9945608 21.934448,12.3607031 25.5427083,12.3607031 Z" id="Oval-2-Copy" fill="url(#radialGradient-6)"></path>
                    <path d="M22.8666667,22.54 C31.8427083,22.54 29.4,20.2745608 29.4,17.48 C29.4,14.6854392 26.474927,12.42 22.8666667,12.42 C19.2584063,12.42 12.29375,14.3013281 12.29375,17.48 C12.29375,20.6586719 13.890625,22.54 22.8666667,22.54 Z" id="Oval-2-Copy-2" fill="url(#radialGradient-7)"></path>
                    <path d="M9.8,22.08 C13.4082604,22.08 16.3333333,19.8145608 16.3333333,17.02 C16.3333333,14.2254392 13.4082604,14.0371875 9.8,14.0371875 C6.19173963,14.0371875 3.26666667,14.2254392 3.26666667,17.02 C3.26666667,19.8145608 6.19173963,22.08 9.8,22.08 Z" id="Oval-2-Copy-4" fill="url(#radialGradient-8)"></path>
                    <path d="M33.1333333,22.08 C36.7415937,22.08 39.9692708,22.7017188 40.9636719,17.3614063 C41.9580729,12.0210938 36.7415937,10.0687891 33.1333333,10.0687891 C29.525073,10.0687891 26.6,13.3054392 26.6,16.1 C26.6,18.8945608 29.525073,22.08 33.1333333,22.08 Z" id="Oval-2-Copy-3" fill="url(#radialGradient-9)"></path>
                    <path d="M33.1333333,12.7164844 C35.2059896,12.7164844 38.5492188,9.98986872 37.5940104,6.93683594 C36.6388021,3.88380315 36.7415937,3.16878906 33.1333333,3.16878906 C29.525073,3.16878906 26.6,6.40543917 26.6,9.2 C26.6,11.9945608 31.0606771,12.7164844 33.1333333,12.7164844 Z" id="Oval-2-Copy-5" fill="url(#radialGradient-10)"></path>
                </g>
                <path d="M72.749198,60.9159367 L77.3706815,57.3783369 C77.9236839,56.9550311 78.7143047,57.0583241 79.1401763,57.6081952 L82.0176667,55.7777166 C82.5958347,55.4099224 83.3626887,55.5804642 83.7304829,56.1586322 C83.7678416,56.2173597 83.8001923,56.2791267 83.8271927,56.3432795 C84.0060799,56.7683155 84.0307045,57.2285055 83.9175464,57.6529606 C86.1862394,56.0867252 87.6797298,54.6022784 89.5613192,57.3098927 C90.7875207,59.0744011 89.2518894,62.2216638 87.2745637,63.4294747 C85.9930298,64.2122748 84.5266092,64.9322595 83.0397254,65.5488461 C79.8997037,68.6958566 77.9702399,70.5844045 77.2513429,71.2144987 C75.3107601,72.915368 72.5337426,74.2928543 71.5803373,74.812611 C70.3802344,75.466857 55.7162171,81.8729629 54.5463499,83.718422 C52.7490747,84.6114433 49.5415226,89.4052902 46.1803044,90.7728866 C42.8190862,92.1404831 40.13494,95.0318005 35.1599767,90.7610676 C32.6199428,88.580588 30.28439,84.1822433 28.1533183,77.5660337 C27.6764166,76.0854269 27.6533286,74.5568702 28.0148896,73.1397967 C27.3595189,72.6291022 26.7731777,72.0068027 26.2855723,71.2787732 C26.0299529,70.8971154 25.8076799,70.4941506 25.6212175,70.0743463 C24.6569898,67.9034696 23.9445946,66.385593 23.484032,65.5207166 C22.6123315,63.8837769 18.7308124,58.6076413 11.8394749,49.6923098 C10.8540179,48.417416 10.2765171,46.8746499 10.1825977,45.2660299 L8.00677773,7.99928131 C16.0569195,24.4603498 22.3528743,36.5380659 26.894642,44.2324294 C31.4364098,51.926793 35.7741693,57.864015 39.9079207,62.0440955 L42.8996633,63.6177754 C43.358959,63.4874401 43.7856056,63.3803339 44.1796032,63.2964567 C47.6382445,62.5601545 56.7669748,61.8711611 71.5657942,61.2294765 L72.749198,60.9159367 Z" id="foot" fill="#C0A67D" transform="translate(49.003094, 50.502150) rotate(12.000000) translate(-49.003094, -50.502150) "></path>
                <path d="M77,63 C76,63.6666667 75,64.3333333 74,65" id="Path-44" stroke="#B29972" stroke-linecap="round"></path>
                <path d="M78.6044785,65 C79.7000311,65 80.7898224,64.8195375 80.9804962,63.7934539 C81.1711701,62.7673702 79.9204061,63.0120267 79.1215753,63.0593103 C78.3227445,63.1065939 77,63.1950246 77,63.6032477 C77,64.0114707 77.5089259,65 78.6044785,65 Z" id="Path-Copy-2" fill="#F8DEFC" transform="translate(79.000000, 64.000000) rotate(-17.000000) translate(-79.000000, -64.000000) "></path>
                <path d="M76.9798855,63.5392402 C77.1736063,62.9643849 75.9239149,63.0003176 75.1281883,63.0329274 C74.3324617,63.0655372 73.8761139,62.7706586 74.0295022,63.4898917 C74.1828905,64.2091248 76.7861646,64.1140954 76.9798855,63.5392402 Z" id="Path-Copy-3" fill="#F8DEFC" transform="translate(75.500000, 63.500000) rotate(-21.000000) translate(-75.500000, -63.500000) "></path>
                <path d="M78,66 C71.3315889,67.2032023 74.3389234,67.2356458 69,66.5480927" id="Path-43" stroke="#B29972" stroke-linecap="round"></path>
                <path d="M80.8950288,66 C82.871781,66 86,65.119542 86,64.489347 C86,63.859152 83.2694131,62.931063 81.8280487,63.0040571 C80.3866842,63.0770512 78,63.2135663 78,63.8437613 C78,64.4739563 78.9182767,66 80.8950288,66 Z" id="Path" fill="#F8DEFC" transform="translate(82.000000, 64.500000) rotate(-17.000000) translate(-82.000000, -64.500000) "></path>
                <path d="M74,65.958675 C74,65.958675 73.269745,66.0516563 72.6184218,65.958675 C71.0728534,65.7380333 68.7434644,65.4950305 68.3059548,65.445058 C67.6840728,65.3740265 66.9495005,65.4883925 66.2151632,65.1507962 C65.4808259,64.8131998 66.8188498,63.5814429 67.3502874,63.3728438 C67.881725,63.1642448 69.0867584,64.0579415 69.7112213,64.0579415 C70.3356842,64.0579415 70.1731759,63.4863281 70.4635043,63.3728438 C70.7538327,63.2593595 71.7409976,62.5938547 72.6184218,63.3728438 C73.495846,64.1518329 74,65.958675 74,65.958675 Z" id="Path-45" fill="#4B320B"></path>
                <path d="M71.3625389,78.9387989 C71.3625389,78.9387989 69.5961988,79.0843988 66.0635187,79.3755987 C65.1374422,80.9833013 64.5170095,81.3976222 64.2022205,80.6185615 C63.730037,79.4499705 64.146901,77.1653179 64.8126655,76.2799043 C65.4784299,75.3944907 65.9362463,75.2467938 67.8047403,75.0414372 C69.6732343,74.8360807 69.9481513,76.5861127 71.8851066,75.5026089 C73.822062,74.419105 73.523311,72.6097685 74.645749,72.1622498 C75.394041,71.863904 77.1787914,71.9770081 80,72.5015623 C74.2416926,76.7930534 71.3625389,78.9387989 71.3625389,78.9387989 Z" id="Path-46" fill="#54380D"></path>
            </g>
        </g>
        <g id="poxbox" transform="translate(100.000000, -3.000000)">
            <g id="Rectangle-10">
                <use fill="#1F022F" fill-rule="evenodd" xlink:href="#path-11"></use>
                <rect stroke="#060605" stroke-width="1" x="0.5" y="3.5" width="99" height="99"></rect>
            </g>
            <g id="pox">
                <g id="hair" fill="#CE7715">
                    <path d="M48.125,90.1512247 C55.472025,90.1512247 70.0721385,93.0106679 75.1982422,88.3494932 C70.2705078,86.6332348 78.5,66.2050737 78.5,52.7189189 C78.5,29.3736933 64.3969696,10.4486486 47,10.4486486 C29.6030304,10.4486486 15.5,29.3736933 15.5,52.7189189 C15.5,66.9220571 24.9111328,76.8426943 20.4423828,86.2622044 C25.8056277,90.2928226 41.3122744,90.1512247 48.125,90.1512247 Z" id="Oval-2"></path>
                    <path d="M73.5398386,66.0989644 C91.1823477,66.0989644 105.484427,60.0124778 105.484427,52.5044162 C105.484427,44.9963546 88.4028125,33.8198591 70.7603034,33.8198591 C53.1177942,33.8198591 43.5802808,51.6264825 25.6215493,49.3913729 C26.9606587,52.456558 35.1847392,54.933416 43.6637298,58.6071208 C53.2996092,62.7820725 64.1552231,66.0989644 73.5398386,66.0989644 Z" id="Oval-10-Copy" transform="translate(65.552988, 49.959412) rotate(-107.000000) translate(-65.552988, -49.959412) "></path>
                    <path d="M42.5986748,65.8247699 C60.241184,65.8247699 74.5432635,60.1986041 74.5432635,53.2583769 C74.5432635,46.3181496 53.3635937,27.9781211 35.7210846,27.9781211 C27.0203928,27.9781211 23.3635962,28.7687953 14.2165514,33.0454396 C10.3347042,34.8603732 7.95389472,41.2384147 3.6721392,43.6740933 C-2.41509023,47.1368165 -6.51725241,40.5511352 -8.81952358,39.107502 C-14.957748,44.5355512 24.9561657,65.8247699 42.5986748,65.8247699 Z" id="Oval-10-Copy-2" transform="translate(32.544116, 46.901445) rotate(-70.000000) translate(-32.544116, -46.901445) "></path>
                </g>
                <g id="neck" transform="translate(11.000000, 72.000000)">
                    <path d="M19,0 L54,0 C52.7845052,6.42947049 52.1767578,11.4294705 52.1767578,15 C52.1767578,18.5705295 62.0426432,23.5705295 81.7744141,30 L0.473632812,30 C15.1546224,23.3943142 22.4951172,18.3943142 22.4951172,15 C22.4951172,11.6056858 21.3300781,6.60568576 19,0 Z" id="Rectangle-Copy-2" fill="url(#linearGradient-12)"></path>
                    <path d="M19,0 L54,0 C52.7845052,6.42947049 52.1767578,11.4294705 52.1767578,15 C52.1767578,18.5705295 52.7845052,23.5705295 54,30 L19,30 C21.3300781,23.3943142 22.4951172,18.3943142 22.4951172,15 C22.4951172,11.6056858 21.3300781,6.60568576 19,0 Z" id="Rectangle" fill="url(#radialGradient-13)"></path>
                    <path d="M19,0 L54,0 C52.7845052,6.42947049 52.1767578,11.4294705 52.1767578,15 C52.1767578,18.5705295 52.7845052,23.5705295 54,30 L19,30 C21.3300781,23.3943142 22.4951172,18.3943142 22.4951172,15 C22.4951172,11.6056858 21.3300781,6.60568576 19,0 Z" id="Rectangle-Copy" fill="url(#radialGradient-13)"></path>
                    <g id="pox-copy" transform="translate(43.000000, 17.500000)">
                        <g id="Oval-6">
                            <use fill="#E5C99D" xlink:href="#path-15"></use>
                            <use fill="url(#radialGradient-14)" xlink:href="#path-15"></use>
                        </g>
                        <circle id="Oval-7" fill="#F1EFB2" cx="1.75" cy="1.75" r="1"></circle>
                    </g>
                    <g id="pox-copy-12" transform="translate(21.500000, 21.000000)">
                        <g id="Oval-6">
                            <use fill="#E5C99D" xlink:href="#path-16"></use>
                            <use fill="url(#radialGradient-14)" xlink:href="#path-16"></use>
                        </g>
                        <circle id="Oval-7" fill="#F1EFB2" cx="2.25" cy="2.25" r="1"></circle>
                    </g>
                    <g id="pox-copy-13" transform="translate(62.000000, 25.500000)">
                        <g id="Oval-6">
                            <use fill="#E5C99D" xlink:href="#path-17"></use>
                            <use fill="url(#radialGradient-14)" xlink:href="#path-17"></use>
                        </g>
                        <circle id="Oval-7" fill="#F1EFB2" cx="1.75" cy="1.75" r="1"></circle>
                    </g>
                </g>
                <g id="head" transform="translate(23.000000, 13.000000)">
                    <path d="M24.0874078,73.9303281 C35.7376511,73.9303281 47.9077253,56.6927873 47.9077253,37.0811188 C47.9077253,17.4694502 45.3699572,-1.67891986 23.5051546,0.162237545 C1.64035207,2.00339496 0.267090361,19.6232308 0.267090361,39.2348993 C0.267090361,58.8465679 13.8388248,73.9303281 24.0874078,73.9303281 Z" id="face" fill="#F3D6AA"></path>
                    <g id="pox" transform="translate(33.649485, 50.161074)">
                        <g id="Oval-6">
                            <use fill="#E5C99D" xlink:href="#path-19"></use>
                            <use fill="url(#radialGradient-18)" xlink:href="#path-19"></use>
                        </g>
                        <ellipse id="Oval-7" fill="#F1EFB2" cx="1.73195876" cy="1.73825503" rx="1" ry="1"></ellipse>
                    </g>
                    <g id="pox-copy-2" transform="translate(37.113402, 46.187919)">
                        <g id="Oval-6">
                            <use fill="#E5C99D" xlink:href="#path-21"></use>
                            <use fill="url(#radialGradient-20)" xlink:href="#path-21"></use>
                        </g>
                        <ellipse id="Oval-7" fill="#F1EFB2" cx="1.2371134" cy="1.24161074" rx="1" ry="1"></ellipse>
                    </g>
                    <g id="pox-copy-3" transform="translate(9.896907, 46.187919)">
                        <g id="Oval-6">
                            <use fill="#E5C99D" xlink:href="#path-23"></use>
                            <use fill="url(#radialGradient-22)" xlink:href="#path-23"></use>
                        </g>
                        <ellipse id="Oval-7" fill="#F1EFB2" cx="2.22680412" cy="2.23489933" rx="1" ry="1"></ellipse>
                    </g>
                    <g id="pox-copy-4" transform="translate(8.412371, 53.140940)">
                        <g id="Oval-6">
                            <use fill="#E5C99D" xlink:href="#path-25"></use>
                            <use fill="url(#radialGradient-24)" xlink:href="#path-25"></use>
                        </g>
                        <ellipse id="Oval-7" fill="#F1EFB2" cx="0.989690722" cy="0.993288591" rx="1" ry="1"></ellipse>
                    </g>
                    <g id="pox-copy-5" transform="translate(4.453608, 45.194631)">
                        <g id="Oval-6">
                            <use fill="#E5C99D" xlink:href="#path-26"></use>
                            <use fill="url(#radialGradient-18)" xlink:href="#path-26"></use>
                        </g>
                        <ellipse id="Oval-7" fill="#F1EFB2" cx="1.73195876" cy="1.73825503" rx="1" ry="1"></ellipse>
                    </g>
                    <g id="pox-copy-6" transform="translate(24.742268, 22.845638)">
                        <g id="Oval-6">
                            <use fill="#E5C99D" xlink:href="#path-27"></use>
                            <use fill="url(#radialGradient-22)" xlink:href="#path-27"></use>
                        </g>
                        <ellipse id="Oval-7" fill="#F1EFB2" cx="2.22680412" cy="2.23489933" rx="1" ry="1"></ellipse>
                    </g>
                    <g id="pox-copy-7" transform="translate(33.649485, 17.382550)">
                        <g id="Oval-6">
                            <use fill="#E5C99D" xlink:href="#path-28"></use>
                            <use fill="url(#radialGradient-24)" xlink:href="#path-28"></use>
                        </g>
                        <ellipse id="Oval-7" fill="#F1EFB2" cx="0.989690722" cy="0.993288591" rx="1" ry="1"></ellipse>
                    </g>
                    <g id="pox-copy-8" transform="translate(33.649485, 60.590604)">
                        <g id="Oval-6">
                            <use fill="#E5C99D" xlink:href="#path-29"></use>
                            <use fill="url(#radialGradient-18)" xlink:href="#path-29"></use>
                        </g>
                        <ellipse id="Oval-7" fill="#F1EFB2" cx="1.73195876" cy="1.73825503" rx="1" ry="1"></ellipse>
                    </g>
                    <g id="pox-copy-9" transform="translate(24.742268, 67.046980)">
                        <g id="Oval-6">
                            <use fill="#E5C99D" xlink:href="#path-30"></use>
                            <use fill="url(#radialGradient-18)" xlink:href="#path-30"></use>
                        </g>
                        <ellipse id="Oval-7" fill="#F1EFB2" cx="1.73195876" cy="1.73825503" rx="1" ry="1"></ellipse>
                    </g>
                    <g id="pox-copy-10" transform="translate(20.783505, 68.040268)">
                        <g id="Oval-6">
                            <use fill="#E5C99D" xlink:href="#path-31"></use>
                            <use fill="url(#radialGradient-18)" xlink:href="#path-31"></use>
                        </g>
                        <ellipse id="Oval-7" fill="#F1EFB2" cx="1.73195876" cy="1.73825503" rx="1" ry="1"></ellipse>
                    </g>
                    <g id="pox-copy-11" transform="translate(20.783505, 68.040268)">
                        <g id="Oval-6">
                            <use fill="#E5C99D" xlink:href="#path-32"></use>
                            <use fill="url(#radialGradient-18)" xlink:href="#path-32"></use>
                        </g>
                        <ellipse id="Oval-7" fill="#F1EFB2" cx="1.73195876" cy="1.73825503" rx="1" ry="1"></ellipse>
                    </g>
                    <g id="mouth" transform="translate(15.340206, 57.114094)">
                        <g id="Oval-5">
                            <use fill="#EE6178" fill-rule="evenodd" xlink:href="#path-33"></use>
                            <path stroke="#EC8092" stroke-width="1" d="M16.8890639,2.20258617 C16.8925875,2.20514216 16.8962291,2.20775165 16.8999922,2.21043437 C16.8889213,2.20254202 16.876032,2.19383658 16.8614338,2.18439973 Z M16.5609304,2.01500648 C16.3253536,1.89334816 16.0209967,1.75373231 15.6817284,1.61373738 C14.7108916,1.21313336 13.6190988,0.871688696 12.5991442,0.67709517 C12.5115839,0.660389858 12.4221577,0.64765516 12.3306718,0.638758444 C11.7626961,0.583524629 11.2188378,0.661358827 10.2932727,0.885105572 C9.25248076,1.13670735 9.06303338,1.17512584 8.65496134,1.17512584 C8.33251878,1.17512584 8.18062311,1.1367118 7.46693941,0.918213465 C6.71773379,0.688839891 6.31066863,0.639609672 5.87766876,0.783749329 C4.7556273,1.15726138 3.45294261,1.97450261 2.17380409,3.02827136 C1.68579135,3.43030176 1.23169073,3.84344612 0.87895162,4.19860465 C0.833433288,4.24443518 0.790443836,4.28848199 0.750364247,4.33030316 C0.820470467,4.3628978 0.897849853,4.39737296 0.981567052,4.43320482 C1.4966015,4.65364505 2.18537869,4.8987347 2.93818421,5.12286685 C4.8630286,5.69594914 6.88273799,6.04949664 8.65496134,6.04949664 C10.3418556,6.04949664 12.2875574,5.24584205 14.2282697,3.91842761 C14.954174,3.42192135 15.6345129,2.8796381 16.1809327,2.37935672 C16.3246303,2.24779259 16.4532585,2.12420124 16.5609304,2.01500648 Z M0.460957816,4.65819572 C0.459762789,4.65987531 0.458655269,4.66145959 0.457636895,4.66294578 C0.459934019,4.65959341 0.462150033,4.65632725 0.464286165,4.65311891 Z"></path>
                        </g>
                        <path d="M4.02545103,3.13797714 C11.2684687,3.60598515 8.51320585,4.68262536 12.8050902,1.86920617" id="Path-65" stroke="#D8596F" stroke-linecap="round"></path>
                    </g>
                    <g id="nose" transform="translate(18.309278, 44.201342)">
                        <path d="M5.19587629,9.43288591 C8.1631195,9.43288591 9.89175258,8.55563632 9.89175258,6.95302013 C9.89175258,4.5622608 7.39851719,0.984034186 5.19587629,0.984034186 C2.99323539,0.984034186 0.5,4.5622608 0.5,6.95302013 C0.5,8.55563632 2.22863308,9.43288591 5.19587629,9.43288591 Z" id="Oval-3" stroke="url(#linearGradient-34)"></path>
                        <ellipse id="Oval-4" stroke="url(#linearGradient-35)" cx="5.19587629" cy="5.7114094" rx="2.71649485" ry="3.72147651"></ellipse>
                    </g>
                    <g id="reye" transform="translate(28.206186, 23.838926)">
                        <ellipse id="darkeye" fill="url(#radialGradient-36)" cx="7.42268041" cy="11.9194631" rx="7.42268041" ry="6.95302013"></ellipse>
                        <path d="M6.97955256,15.3959732 C4.03230678,15.3959732 0.494845361,14.7289075 0.494845361,13.9060403 C0.494845361,13.0831731 2.7434716,9.92568053 6.97955256,9.92568053 C11.2156335,9.92568053 13.7142895,11.8379596 13.7142895,12.6608268 C13.7142895,13.4836941 9.92679835,15.3959732 6.97955256,15.3959732 Z" id="whites" stroke="#E8D0AC" fill="#F1EFB2"></path>
                        <g id="iris">
                            <use fill="#8BE6D3" fill-rule="evenodd" xlink:href="#path-37"></use>
                            <ellipse stroke="#A6D4CB" stroke-width="1" cx="6.18556701" cy="12.6644295" rx="1.72680412" ry="1.73489933"></ellipse>
                        </g>
                        <g id="pupil">
                            <use fill="#000000" fill-rule="evenodd" xlink:href="#path-38"></use>
                            <ellipse stroke="#060605" stroke-width="1" cx="6.18556701" cy="12.6644295" rx="1" ry="1"></ellipse>
                        </g>
                        <path d="M0.247931037,7.13650529 C0.0860700795,6.83970277 0,6.52860694 0,6.20805369 C0,5.15071417 0.936441769,2.94058206 2.44043078,2.00751889 C3.86261451,1.12520708 6.82782393,0.260471755 8.90721649,0.496644295 C13.2799452,0.993288591 15.3402062,4.15088566 15.8350515,6.20805369 C15.8350515,6.52860694 15.7489815,6.83970277 15.5871205,7.13650529 C14.7102299,5.08736361 11.6088846,2.48322148 7.91752577,2.48322148 C4.22616694,2.48322148 1.12482164,5.08736361 0.247931037,7.13650529 Z" id="Combined-Shape" fill="#B56409"></path>
                    </g>
                    <g id="leye" transform="translate(4.948454, 25.825503)">
                        <ellipse id="darkeye" fill="url(#radialGradient-36)" cx="8.41237113" cy="9.93288591" rx="7.42268041" ry="6.95302013"></ellipse>
                        <path d="M7.96924328,13.409396 C5.0219975,13.409396 1.48453608,12.7423303 1.48453608,11.9194631 C1.48453608,11.0965959 3.73316232,7.93910335 7.96924328,7.93910335 C12.2053243,7.93910335 14.7039802,9.85138245 14.7039802,10.6742497 C14.7039802,11.4971169 10.9164891,13.409396 7.96924328,13.409396 Z" id="whites" stroke="#E8D0AC" fill="#F1EFB2" transform="translate(8.094258, 10.674250) scale(-1, 1) translate(-8.094258, -10.674250) "></path>
                        <g id="Group" transform="translate(6.432990, 8.442953)">
                            <g id="iris">
                                <use fill="#8BE6D3" fill-rule="evenodd" xlink:href="#path-39"></use>
                                <ellipse stroke="#A6D4CB" stroke-width="1" cx="2.22680412" cy="2.23489933" rx="1.72680412" ry="1.73489933"></ellipse>
                            </g>
                            <g id="pupil">
                                <use fill="#000000" fill-rule="evenodd" xlink:href="#path-40"></use>
                                <ellipse stroke="#060605" stroke-width="1" cx="2.22680412" cy="2.23489933" rx="1" ry="1"></ellipse>
                            </g>
                        </g>
                        <path d="M0.256008713,6.6545477 C0.0889351385,6.35332673 0,6.03725418 0,5.7114094 C0,4.65406987 0.936441769,2.44393777 2.44043078,1.51087459 C3.86261451,0.62856278 6.82782393,0.260471755 8.90721649,0.496644295 C13.2799452,0.993288591 15.3402062,3.65424137 15.8350515,5.7114094 C15.8350515,6.03725418 15.7461164,6.35332673 15.5790428,6.6545477 C14.6913246,4.71974515 11.5976369,2.48322148 7.91752577,2.48322148 C4.23741466,2.48322148 1.14372697,4.71974515 0.256008713,6.6545477 Z" id="Combined-Shape-Copy" fill="#B56409" transform="translate(7.917526, 3.540637) scale(-1, 1) translate(-7.917526, -3.540637) "></path>
                    </g>
                </g>
                <path d="M40.8013133,37 C51.4044552,37 60,32.6631639 60,27.3134054 C60,21.9636469 49.7339555,14 39.1308136,14 C28.5276717,14 13,18.1096333 13,23.4593918 C13,28.8091503 30.1981714,37 40.8013133,37 Z" id="bangs" fill="#CE7715" transform="translate(36.500000, 25.500000) rotate(-41.000000) translate(-36.500000, -25.500000) "></path>
            </g>
        </g>
        <g id="toenailbox" transform="translate(-1.000000, 100.000000)">
            <g id="Rectangle-11">
                <use fill="#1F022F" fill-rule="evenodd" xlink:href="#path-41"></use>
                <rect stroke="#060605" stroke-width="1" x="0.5" y="0.5" width="99" height="99"></rect>
            </g>
            <g id="toenails" transform="translate(6.000000, 10.000000)">
                <g id="Combined-Shape">
                    <use fill="#E6C28B" fill-rule="evenodd" xlink:href="#path-42"></use>
                    <path stroke="#B99C6C" stroke-width="1" d="M10.4720856,89.5 L88.3795241,89.5 C85.2254039,75.004995 83.440729,66.9825332 83.035619,65.476032 C82.6654197,64.0993548 81.8228356,62.157161 80.5089781,59.6619314 L80.404398,59.4633167 L80.4833181,59.2531823 C80.7532667,58.5344114 80.9118414,57.7769525 80.9518759,57.0052644 C81.3647117,49.0477685 80.5339222,43.1940299 78.4842279,39.4554248 C77.4357249,37.5429744 75.4281303,36.3541204 73.2471156,36.3541204 C69.9485636,36.3541204 67.2745588,39.0281252 67.2745588,42.3266758 L67.2746022,56.6132814 L66.6609057,56.4699796 C66.4794542,56.4276095 66.2996751,56.3716157 66.1210684,56.3024002 L65.8017412,56.1786513 L65.8017411,55.8361843 C65.8017393,39.6492048 65.8017393,39.6492048 65.8017389,29.3939377 C65.8017389,26.4209215 63.1915127,23.8826967 60.088472,23.4706186 C56.8308633,23.0380142 54.5068475,25.0921734 54.5068475,29.3939377 C54.5068475,30.8378233 54.7008025,31.8850683 55.2896117,34.1802487 C55.8984738,36.5535955 56.1037426,37.6619285 56.1037426,39.2150544 C56.1037426,42.1287054 55.9113484,46.4760491 55.5267444,52.2612087 L55.5049364,52.5892424 L55.1951227,52.6992296 C54.7430772,52.8597107 54.359287,52.9442621 54.0068475,52.9442621 C53.5352246,52.9442621 53.107217,52.8643299 52.6728983,52.7030251 L52.2448195,52.5440379 L52.3644375,52.103334 C52.4945184,51.6240821 52.5611169,51.1267036 52.5610875,50.6200191 C52.5610868,32.0381825 52.5610868,32.0381825 52.5610866,20.9075349 C52.5610866,15.5545711 48.2429514,12.715765 44.5122186,14.5775904 C42.5094816,15.577058 41.2661952,17.7934309 41.2617369,20.8409135 C41.8480025,25.2016589 42.1848468,29.7798351 42.2119487,34.7657284 C42.2269213,37.5202088 42.0339305,42.6641494 41.6330704,50.2057208 L41.6078524,50.6801583 L41.1327462,50.6791806 C41.0077452,50.6789233 40.8815799,50.6772701 40.7541107,50.6741884 C40.5985709,50.6704281 40.4434153,50.6641046 40.2886062,50.6552661 L39.6883974,50.6209983 L39.8314722,50.0370853 C40.0638743,49.0886118 40.1087931,48.0994856 39.9566527,47.1123417 C38.7335028,39.176127 38.0496626,34.196501 37.9030723,32.1512185 C37.5793524,27.6345554 37.6178978,23.7508567 37.8939021,18.6348306 C38.1791494,13.3474758 38.1906518,12.8129937 37.9383663,12.1901458 C36.5835232,8.84527949 35.2762225,7.5 31.8708291,7.5 C29.2556572,7.5 26.0032025,9.45043153 25.4492079,11.1922555 C25.2636387,11.7757068 25.1355162,12.9622184 25.0771238,14.718358 L25.0237152,16.3246108 L24.1564497,14.9715583 C24.1170785,14.9101339 24.0772955,14.8489244 24.0370989,14.7879303 C20.4637565,9.36575679 18.7707993,8.18381227 13.6291385,8.18381227 C8.41054843,8.18381227 5.88830425,10.0795073 2.41926246,16.0342872 C1.04796666,18.3881834 0.493543162,21.5872458 0.500057546,25.8628763 C0.502411226,27.4076835 0.563779921,28.8197237 0.710420826,31.2485988 C0.886491214,34.1649267 0.922659196,34.8943549 0.922659196,36.0428236 C0.922659196,38.6945806 1.46662681,42.3525038 2.55692171,47.0070391 C2.66271762,47.4586882 2.80925333,47.8970716 2.99436868,48.3179076 L3.0352078,48.4807566 C4.34916407,65.5067116 5.28087081,75.4303178 5.82222152,78.1912227 C6.3513591,80.8898403 7.90114074,84.6650667 10.4720909,89.4999994 Z M53.4403028,51.8876602 C53.6229402,51.9256822 53.8084914,51.9442621 54.0068475,51.9442621 C54.1580837,51.9442621 54.3381943,51.9149418 54.5513906,51.855593 C54.9196833,46.2598641 55.1037426,42.045063 55.1037426,39.2150544 C55.1037426,37.7711688 54.9097876,36.7239238 54.3209784,34.4287434 C53.8850759,32.7295937 53.6560373,31.6788337 53.5610868,30.6490435 C53.5610869,34.8888284 53.5610871,39.3162423 53.5610875,50.6199901 C53.5611124,51.0490703 53.5203997,51.4730159 53.4403028,51.8876602 Z M25.8393617,49.5463975 C25.832518,49.5207144 25.825714,49.4950443 25.8189497,49.4693874 C25.7361146,49.4444325 25.651435,49.4175519 25.5647852,49.3887269 L25.4069588,49.8631643 L25.7754159,49.7624935 L25.8393617,49.5463975 Z M24.9246376,49.9949454 C24.2783427,47.6294938 23.9545909,45.3622143 23.9545909,43.1935985 C23.9545909,42.3894718 24.1823467,41.5687408 24.8522087,39.6626711 L25.7211862,37.1900251 L25.8235448,39.8089223 C25.9376514,42.7283962 26.0686019,46.1058991 26.2163965,49.9414364 L26.2432337,50.6379092 L25.5748917,50.4401376 C25.4685473,50.4086689 25.3600445,50.3744977 25.2491324,50.3376017 L24.995177,50.2531208 L24.9246376,49.9949454 Z"></path>
                </g>
                <g id="marketnail" opacity="0.807744565">
                    <use fill="#DBC9D5" xlink:href="#path-44"></use>
                    <use fill="url(#radialGradient-43)" xlink:href="#path-44"></use>
                </g>
                <g id="hangnail">
                    <use fill="#974355" xlink:href="#path-46"></use>
                    <use fill="url(#radialGradient-45)" xlink:href="#path-46"></use>
                </g>
                <g id="stayedhomenail" opacity="0.807744565">
                    <use fill="#DBC9D5" xlink:href="#path-48"></use>
                    <use fill="url(#radialGradient-47)" xlink:href="#path-48"></use>
                </g>
                <g id="roastbeefnail" opacity="0.807744565">
                    <use fill="#DBC9D5" xlink:href="#path-50"></use>
                    <use fill="url(#radialGradient-49)" xlink:href="#path-50"></use>
                </g>
                <g id="hadnonenail" opacity="0.807744565">
                    <use fill="#DBC9D5" xlink:href="#path-52"></use>
                    <use fill="url(#radialGradient-51)" xlink:href="#path-52"></use>
                </g>
                <path d="M65.3530112,26.5039552 C64.8164194,26.3157352 64.1762613,26.0110109 63.4325369,25.5897824 C63.7860576,25.2431824 64.1065478,24.9471361 64.3940077,24.7016435 C61.8529978,22.5976824 59.371122,22.8762001 60.1432887,21.9900204 C60.6005554,21.4652367 64.2240488,22.3563415 66.9894776,21.9900204 C69.0236998,21.7205582 72.0214323,18.1776476 73.4770574,21.2384067 C75.5188098,25.5316221 71.0614307,24.8394151 69.0385383,25.5864887 C67.6586769,26.0960848 67.0429075,29.6817066 66.2672616,30 C66.2672616,28.0153043 65.7942454,27.1313932 65.3530112,26.5039552 Z" id="Combined-Shape" fill="#6F0F05"></path>
                <g id="weeweeweenail" opacity="0.807744565" transform="translate(72.997422, 40.500739) rotate(-16.000000) translate(-72.997422, -40.500739) ">
                    <use fill="#DBC9D5" xlink:href="#path-54"></use>
                    <use fill="url(#radialGradient-53)" xlink:href="#path-54"></use>
                </g>
                <path d="M26.1451718,7.010527 C26.0504861,6.74706417 26,6.47012617 26,6.18439885 C26,4.42570393 27.9127108,3 30.2721592,3 C32.307797,3 34.0109036,4.06122973 34.4400312,5.48194928 C33.5439964,4.93097211 32.3260136,4.59219942 30.9841857,4.59219942 C28.6448618,4.59219942 26.6819515,5.62186349 26.1451718,7.010527 Z" id="Combined-Shape" fill="#CCC3B6"></path>
                <path d="M4.28805911,11 C4.10004725,10.4856658 4,9.94616196 4,9.39006712 C4,5.8609305 8.02943725,3 13,3 C17.9705627,3 22,5.8609305 22,9.39006712 C22,9.67188816 21.9743047,9.9494481 21.9244867,10.2216304 C20.5582625,7.86244368 17.2073933,6.19503356 13.2903226,6.19503356 C8.95490717,6.19503356 5.31309253,8.23762286 4.28805911,11 Z" id="Combined-Shape-Copy-2" fill="#CCC3B6" transform="translate(13.000000, 7.000000) rotate(-21.000000) translate(-13.000000, -7.000000) "></path>
                <path d="M45,14 C45.2074038,12.3147256 46.9191147,11 49,11 C51.0808853,11 52.7925962,12.3147256 53,14 C52.2797238,12.8841052 50.7592289,12.1148824 49,12.1148824 C47.2407711,12.1148824 45.7202762,12.8841052 45,14 Z" id="Combined-Shape-Copy" fill="#CCC3B6" transform="translate(49.000000, 12.500000) rotate(20.000000) translate(-49.000000, -12.500000) "></path>
                <path d="M71,34 C71.1037019,32.3147256 71.9595573,31 73,31 C74.0404427,31 74.8962981,32.3147256 75,34 C74.6398619,32.8841052 73.8796144,32.1148824 73,32.1148824 C72.1203856,32.1148824 71.3601381,32.8841052 71,34 Z" id="Combined-Shape-Copy-4" fill="#CCC3B6" transform="translate(73.000000, 32.500000) rotate(7.000000) translate(-73.000000, -32.500000) "></path>
                <path d="M58,22 C58.2074038,20.3147256 59.9191147,19 62,19 C64.0808853,19 65.7925962,20.3147256 66,22 C65.2797238,20.8841052 63.7592289,20.1148824 62,20.1148824 C60.2407711,20.1148824 58.7202762,20.8841052 58,22 Z" id="Combined-Shape-Copy-3" fill="#CCC3B6" transform="translate(62.000000, 20.500000) rotate(52.000000) translate(-62.000000, -20.500000) "></path>
                <g id="wrinkles" transform="translate(5.000000, 29.000000)" stroke="#060605" stroke-linecap="round">
                    <path d="M0.0644060473,11.8823932 C9.47989255,8.465673 4.09150883,9.59507267 16.4480658,9.69948103" id="Path-59"></path>
                    <path d="M26.7117476,2.58224246 C27.69109,2.55359701 28.6704325,2.52495157 29.649775,2.49630612" id="Path-60"></path>
                    <path d="M42.0639615,0.302268956 C42.9178579,0.302268956 43.7717543,0.302268956 44.6256506,0.302268956" id="Path-61"></path>
                    <path d="M42.630958,12.0411256 C43.1904874,12.0282002 43.7500169,12.0152748 44.3095464,12.0023494" id="Path-62"></path>
                    <path d="M55.7649662,17.4463686 C56.094843,17.3958897 56.4247198,17.3454108 56.7545966,17.294932" id="Path-63"></path>
                </g>
                <path d="M57,26.702507 C57.9090477,27.2195153 59.1270582,26.9577676 60.1758581,26.702507 C61.0864476,26.4808845 62.0131063,25.5642642 63,25 C61.7178951,25.5990834 60.7178951,26.0004769 60,26.2041805 C59.3845618,26.3788118 58.3845618,26.5449206 57,26.702507 Z" id="Path-64" fill="#6F0F05"></path>
            </g>
        </g>
    </g>
</svg>