<?xml version="1.0" encoding="UTF-8" standalone="no"?>
<svg width="401px" height="401px" viewBox="0 0 401 401" version="1.1" xmlns="http://www.w3.org/2000/svg" xmlns:xlink="http://www.w3.org/1999/xlink">
    <!-- Generator: Sketch 46.2 (44496) - http://www.bohemiancoding.com/sketch -->
    <title>piggie</title>
    <desc>Created with Sketch.</desc>
    <defs>
        <radialGradient cx="50%" cy="50%" fx="50%" fy="50%" r="46.2976074%" gradientTransform="translate(0.500000,0.500000),scale(0.153125,1.000000),scale(1.000000,0.110153),translate(-0.500000,-0.500000)" id="radialGradient-1">
            <stop stop-color="#747171" offset="0%"></stop>
            <stop stop-color="#A7A1A1" offset="100%"></stop>
        </radialGradient>
        <filter x="-1.6%" y="-10.2%" width="103.1%" height="120.4%" filterUnits="objectBoundingBox" id="filter-2">
            <feGaussianBlur stdDeviation="1.66475184" in="SourceGraphic"></feGaussianBlur>
        </filter>
        <radialGradient cx="50.7598102%" cy="50%" fx="50.7598102%" fy="50%" r="75.1172439%" gradientTransform="translate(0.507598,0.500000),scale(0.767296,1.000000),rotate(90.000000),translate(-0.507598,-0.500000)" id="radialGradient-3">
            <stop stop-color="#F8D1E4" offset="0%"></stop>
            <stop stop-color="#F2A2C5" offset="100%"></stop>
        </radialGradient>
        <ellipse id="path-4" cx="74.5" cy="52" rx="74.5" ry="52"></ellipse>
        <filter x="-5.0%" y="-7.2%" width="110.1%" height="114.4%" filterUnits="objectBoundingBox" id="filter-5">
            <feMorphology radius="0.5" operator="dilate" in="SourceAlpha" result="shadowSpreadOuter1"></feMorphology>
            <feOffset dx="0" dy="0" in="shadowSpreadOuter1" result="shadowOffsetOuter1"></feOffset>
            <feGaussianBlur stdDeviation="2" in="shadowOffsetOuter1" result="shadowBlurOuter1"></feGaussianBlur>
            <feColorMatrix values="0 0 0 0 0.886639031   0 0 0 0 0.597529776   0 0 0 0 0.725880929  0 0 0 1 0" type="matrix" in="shadowBlurOuter1"></feColorMatrix>
        </filter>
        <path d="M73.8614286,3.19672131 L73.8614286,100.803279" id="path-6"></path>
        <filter x="-2877.5%" y="-25.1%" width="5855.0%" height="150.2%" filterUnits="objectBoundingBox" id="filter-7">
            <feMorphology radius="7.5" operator="dilate" in="SourceAlpha" result="shadowSpreadOuter1"></feMorphology>
            <feOffset dx="0" dy="0" in="shadowSpreadOuter1" result="shadowOffsetOuter1"></feOffset>
            <feMorphology radius="7.5" operator="erode" in="SourceAlpha" result="shadowInner"></feMorphology>
            <feOffset dx="0" dy="0" in="shadowInner" result="shadowInner"></feOffset>
            <feComposite in="shadowOffsetOuter1" in2="shadowInner" operator="out" result="shadowOffsetOuter1"></feComposite>
            <feGaussianBlur stdDeviation="3" in="shadowOffsetOuter1" result="shadowBlurOuter1"></feGaussianBlur>
            <feColorMatrix values="0 0 0 0 0.690196078   0 0 0 0 0.215686275   0 0 0 0 0.42745098  0 0 0 1 0" type="matrix" in="shadowBlurOuter1"></feColorMatrix>
        </filter>
        <path d="M25.7686166,17.6054714 C35.8512665,17.6054714 47.8149706,23.4454074 47.8149706,15.7554719 C47.8149706,8.06553644 37.6226406,0 25.7686166,0 C13.9145927,0 0,12.8593758 0,20.4290681 C0,27.9987604 15.6859667,17.6054714 25.7686166,17.6054714 Z" id="path-8"></path>
        <path d="M34.9065888,18.4489262 C44.9892387,18.4489262 56.9529428,24.2888622 56.9529428,16.5989267 C56.9529428,8.90899123 46.7606127,0.843454791 34.9065888,0.843454791 C23.0525648,0.843454791 9.13797216,13.7028306 9.13797216,21.2725229 C9.13797216,28.8422152 24.8239389,18.4489262 34.9065888,18.4489262 Z" id="path-10"></path>
        <path d="M16.4067381,15.624725 C21.5968758,9.20339311 32.4669579,3.36350736 40.6753272,2.58196707 L63.6702337,0.392561948 C73.7084386,-0.563201771 88.4592836,3.47154853 96.6160195,9.40359356 L109.751757,18.9566534 L112.700097,23.2901727 L111.58391,29.2044899 L101.640653,53.1174761 L93.576013,66.8291197 L77.7170679,74.1259513 L61.9742823,76.8020944 L41.8881859,77.7743671 L28.9744131,71.5879229 L0.274558911,35.5837477 L16.4067381,15.624725 Z" id="path-12"></path>
        <path d="M16.4067381,15.624725 C21.5968758,9.20339311 32.4669579,3.36350736 40.6753272,2.58196707 L63.6702337,0.392561948 C73.7084386,-0.563201771 88.4592836,3.47154853 96.6160195,9.40359356 L109.751757,18.9566534 L112.700097,23.2901727 L111.58391,29.2044899 L101.640653,53.1174761 L93.576013,66.8291197 L77.7170679,74.1259513 L61.9742823,76.8020944 L41.8881859,77.7743671 L28.9744131,71.5879229 L0.274558911,35.5837477 L16.4067381,15.624725 Z" id="path-14"></path>
    </defs>
    <g id="Page-1" stroke="none" stroke-width="1" fill="none" fill-rule="evenodd">
        <g id="piggie">
            <rect id="Rectangle" fill="#E6F9ED" x="0" y="0" width="401" height="401"></rect>
            <ellipse id="Oval-3" fill="url(#radialGradient-1)" opacity="0.268773321" style="mix-blend-mode: darken;" filter="url(#filter-2)" cx="201" cy="335.5" rx="160" ry="24.5"></ellipse>
            <g id="pig-mouth-open-copy" transform="translate(0.000000, 34.000000)">
                <ellipse id="headshape" fill="url(#radialGradient-3)" cx="197" cy="151" rx="159" ry="122"></ellipse>
                <g id="snout" transform="translate(121.000000, 132.000000)">
                    <g id="Oval">
                        <use fill="black" fill-opacity="1" filter="url(#filter-5)" xlink:href="#path-4"></use>
                        <use fill="#FFB9D8" fill-rule="evenodd" xlink:href="#path-4"></use>
                    </g>
                    <g id="nostrils" transform="translate(46.828571, 32.819672)" fill="#B0376D">
                        <ellipse id="Oval-2" cx="10.6428571" cy="19.3934426" rx="10.6428571" ry="19.3934426"></ellipse>
                        <ellipse id="Oval-2-Copy" cx="44.7" cy="19.3934426" rx="10.6428571" ry="19.3934426"></ellipse>
                    </g>
                    <g id="Line" opacity="0.222248134" style="mix-blend-mode: soft-light;" stroke-linecap="square">
                        <use fill="black" fill-opacity="1" filter="url(#filter-7)" xlink:href="#path-6"></use>
                        <use stroke="#B0376D" stroke-width="7" xlink:href="#path-6"></use>
                    </g>
                </g>
                <g id="eyes" transform="translate(75.000000, 104.000000)">
                    <g id="right-eye" transform="translate(195.085080, 0.843455)">
                        <g id="eyelashes-right" transform="translate(44.627306, 1.265182)" stroke="#FFFFFF" stroke-width="2" stroke-linecap="square">
                            <path d="M2.54515104,3.79554656 C2.54515104,3.79554656 2.95699118,9.51977316 5.48045896,11.31745 C8.48227667,13.4558955 11.9006149,11.31745 11.9006149,11.31745" id="Line" transform="translate(7.222883, 8.031708) scale(-1, 1) translate(-7.222883, -8.031708) "></path>
                            <path d="M0.420041235,0 C0.420041235,0 0.831881378,5.7242266 3.35534915,7.52190347 C6.35716687,9.66034895 9.7755051,7.52190347 9.7755051,7.52190347" id="Line-Copy" transform="translate(5.097773, 4.236162) scale(-1, 1) translate(-5.097773, -4.236162) "></path>
                            <path d="M2.970173,9.2780027 C2.970173,9.2780027 3.38201314,15.0022293 5.90548092,16.7999062 C8.90729864,18.9383517 12.3256369,16.7999062 12.3256369,16.7999062" id="Line-Copy-2" transform="translate(7.647905, 13.514165) scale(-1, 1) translate(-7.647905, -13.514165) "></path>
                        </g>
                        <mask id="mask-9" fill="white">
                            <use xlink:href="#path-8"></use>
                        </mask>
                        <use id="Mask" fill="#FFFFFF" xlink:href="#path-8"></use>
                        <path d="M34.8518008,19.1885965 C34.8518008,9.1733113 30.9508801,1.05431849 26.1388506,1.05431849 C21.3268211,1.05431849 17.4259004,9.1733113 17.4259004,19.1885965 C17.4259004,19.1885965 22.7666298,17.4720342 26.1388506,17.4720342 C28.5752633,17.4720342 34.8518008,19.1885965 34.8518008,19.1885965 Z" id="Oval-4" fill="#000000" mask="url(#mask-9)"></path>
                    </g>
                    <g id="left-eye">
                        <g id="eyelashes-left" stroke="#FFFFFF" stroke-width="2" stroke-linecap="square">
                            <path d="M1.27506588,3.79554656 C1.27506588,3.79554656 1.68690603,9.51977316 4.2103738,11.31745 C7.21219152,13.4558955 10.6305297,11.31745 10.6305297,11.31745" id="Line"></path>
                            <path d="M4.67524157,0 C4.67524157,0 5.08708171,5.7242266 7.61054949,7.52190347 C10.6123672,9.66034895 14.0307054,7.52190347 14.0307054,7.52190347" id="Line-Copy"></path>
                            <path d="M0,9.2780027 C0,9.2780027 0.411840143,15.0022293 2.93530792,16.7999062 C5.93712564,18.9383517 9.35546387,16.7999062 9.35546387,16.7999062" id="Line-Copy-2"></path>
                        </g>
                        <mask id="mask-11" fill="white">
                            <use xlink:href="#path-10"></use>
                        </mask>
                        <use id="Mask" fill="#FFFFFF" transform="translate(33.045457, 12.438675) scale(-1, 1) translate(-33.045457, -12.438675) " xlink:href="#path-10"></use>
                        <path d="M39.5270424,20.0320513 C39.5270424,10.0167661 35.6261217,1.89777328 30.8140922,1.89777328 C26.0020626,1.89777328 22.101142,10.0167661 22.101142,20.0320513 C22.101142,20.0320513 27.4418714,20.0320513 30.8140922,20.0320513 C33.2505048,20.0320513 39.5270424,20.0320513 39.5270424,20.0320513 Z" id="Oval-4" fill="#000000" mask="url(#mask-11)" transform="translate(30.814092, 10.964912) scale(-1, 1) translate(-30.814092, -10.964912) "></path>
                    </g>
                </g>
                <path d="M197.967686,231 C201.731341,231 211.738458,232.269725 216.122548,235.876918 C223.750835,242.153409 230,255 230,255 C230,255 207.527227,249.923423 197.967686,249.923423 C188.414247,249.923423 165,255 165,255 C165,255 172.497415,242.073284 180.57843,235.876918 C185.706554,231.944772 193.802617,231 197.967686,231 Z" id="mouth" fill="#C12B2B" transform="translate(197.500000, 243.000000) scale(1, -1) translate(-197.500000, -243.000000) "></path>
                <g id="right-ear" transform="translate(336.500000, 46.000000) rotate(-7.000000) translate(-336.500000, -46.000000) translate(280.000000, 7.000000)">
                    <mask id="mask-13" fill="white">
                        <use xlink:href="#path-12"></use>
                    </mask>
                    <use id="Mask" fill="#F3B0CE" xlink:href="#path-12"></use>
                    <path d="M25.9122286,17.6209104 C27.7165692,15.5453741 31.3744194,13.4834741 34.0777093,13.0163153 L62.2728531,8.14387835 C72.2103273,6.42657139 86.9106563,9.8096063 95.1001185,15.6951837 L100.52289,19.5924044 C104.987069,22.8007068 106.599837,29.3477134 106.444378,30.6417032 C106.444378,30.6417032 106.444378,27.9751325 106.444378,30.6417032 C104.646017,33.2248582 106.991621,36.3536345 108.606001,36.3536345 C108.719448,38.3730745 106.991621,40.3830452 106.991621,40.3830452 L102.042987,52.7345839 L96.7736483,60.8586306 C94.7784414,63.9347571 90.5035129,67.7417626 87.2141512,69.3673389 L81.5291612,72.1768156 C79.0651258,73.3945223 74.8578869,74.6954857 72.1325043,75.0825314 L61.0545099,76.6557748 L52.6184633,77.4548562 C47.1436996,77.9734382 38.7021069,76.4239802 33.7775218,74.0008761 L32.1644143,73.207159 C30.5157681,72.3959553 28.2622147,70.5599158 27.1427964,69.1214574 L5.41409054,41.199956 L25.9122286,17.6209104 Z" id="Path-2-Copy" fill="#EF76AC" mask="url(#mask-13)"></path>
                    <path d="M20.388558,50.0267979 L38.297992,27.404976" id="Line" stroke="#FFFFFF" stroke-linecap="square" mask="url(#mask-13)"></path>
                    <path d="M18.5177486,57.1683198 L46.2347298,42.6562077" id="Line-Copy-3" stroke="#FFFFFF" stroke-linecap="square" mask="url(#mask-13)"></path>
                    <path d="M26.2179804,65.0432988 L55.6406219,56.9335891" id="Line-Copy-4" stroke="#FFFFFF" stroke-linecap="square" mask="url(#mask-13)"></path>
                </g>
                <g id="left-ear" transform="translate(61.500000, 46.000000) scale(-1, 1) rotate(-7.000000) translate(-61.500000, -46.000000) translate(5.000000, 7.000000)">
                    <mask id="mask-15" fill="white">
                        <use xlink:href="#path-14"></use>
                    </mask>
                    <use id="Mask" fill="#F3B0CE" xlink:href="#path-14"></use>
                    <path d="M25.9122286,17.6209104 C27.7165692,15.5453741 31.3744194,13.4834741 34.0777093,13.0163153 L62.2728531,8.14387835 C72.2103273,6.42657139 86.9106563,9.8096063 95.1001185,15.6951837 L100.52289,19.5924044 C104.987069,22.8007068 106.599837,29.3477134 106.444378,30.6417032 C106.444378,30.6417032 106.444378,27.9751325 106.444378,30.6417032 C104.646017,33.2248582 106.991621,36.3536345 108.606001,36.3536345 C108.719448,38.3730745 106.991621,40.3830452 106.991621,40.3830452 L102.042987,52.7345839 L96.7736483,60.8586306 C94.7784414,63.9347571 90.5035129,67.7417626 87.2141512,69.3673389 L81.5291612,72.1768156 C79.0651258,73.3945223 74.8578869,74.6954857 72.1325043,75.0825314 L61.0545099,76.6557748 L52.6184633,77.4548562 C47.1436996,77.9734382 38.7021069,76.4239802 33.7775218,74.0008761 L32.1644143,73.207159 C30.5157681,72.3959553 28.2622147,70.5599158 27.1427964,69.1214574 L5.41409054,41.199956 L25.9122286,17.6209104 Z" id="Path-2-Copy" fill="#EF76AC" mask="url(#mask-15)"></path>
                    <path d="M20.0247895,52.9923151 L37.9342235,30.3704933" id="Line" stroke="#FFFFFF" stroke-linecap="square" mask="url(#mask-15)"></path>
                    <path d="M18.5177486,57.1683198 L58.827705,45.0580403" id="Line-Copy-3" stroke="#FFFFFF" stroke-linecap="square" mask="url(#mask-15)"></path>
                    <path d="M24.0924528,61.5671672 L55.3678828,61.5671672" id="Line-Copy-4" stroke="#FFFFFF" stroke-linecap="square" mask="url(#mask-15)"></path>
                </g>
            </g>
        </g>
    </g>
</svg>